<svg xmlns="http://www.w3.org/2000/svg" width="22.372" height="16.579" viewBox="0 0 22.372 16.579">
  <g id="lotus" transform="translate(0 -66.29)">
    <g id="Group_2" data-name="Group 2" transform="translate(0 66.29)">
      <path id="Path_3" data-name="Path 3" d="M22.276,85.44A10.1,10.1,0,0,0,20,83.819a18.591,18.591,0,0,0,2.349-4.305.328.328,0,0,0-.251-.434,18.849,18.849,0,0,0-3.8-.209q.065-.738.068-1.543a19.594,19.594,0,0,0-.24-3.182A.328.328,0,0,0,17.7,73.9a19.855,19.855,0,0,0-3.9,2.021c-.21-.431-.428-.831-.635-1.187a.328.328,0,0,0-.566.33,11.715,11.715,0,0,1,1.792,5.492A4.844,4.844,0,0,1,13.1,83.889c-.172.093-.336.189-.491.285a6.089,6.089,0,0,0,.4-1.066.328.328,0,0,0-.633-.169,5.9,5.9,0,0,1-.856,1.808V82.14a.328.328,0,1,0-.655,0v2.606A5.9,5.9,0,0,1,10,82.939a.328.328,0,0,0-.633.169,6.09,6.09,0,0,0,.4,1.066c-.155-.1-.319-.191-.491-.285a4.844,4.844,0,0,1-1.292-3.337c0-3.157,2.41-6.559,3.2-7.595.152.2.364.482.6.832a.328.328,0,0,0,.54-.371c-.506-.736-.879-1.18-.895-1.2a.328.328,0,0,0-.5,0,19.584,19.584,0,0,0-1.8,2.636q-.309.538-.565,1.061A19.849,19.849,0,0,0,4.677,73.9a.328.328,0,0,0-.434.251,19.728,19.728,0,0,0-.172,4.725,18.839,18.839,0,0,0-3.8.208.328.328,0,0,0-.251.434,18.593,18.593,0,0,0,2.349,4.3A10.1,10.1,0,0,0,.1,85.44a.328.328,0,0,0,0,.464,9.014,9.014,0,0,0,5.661,2.523,8.8,8.8,0,0,0,5.429-2.308,9.3,9.3,0,0,0,4.624,2.254.328.328,0,0,0,.086-.65,8.71,8.71,0,0,1-4.223-2.052,8.192,8.192,0,0,1,4.942-2.1,8.211,8.211,0,0,1,4.942,2.1,8.71,8.71,0,0,1-4.223,2.052.328.328,0,0,0,.043.653l.043,0a9.452,9.452,0,0,0,4.856-2.47.328.328,0,0,0,0-.464ZM.785,79.666a19,19,0,0,1,3.359-.135c.038.281.084.564.141.847a.328.328,0,0,0,.321.264.333.333,0,0,0,.064-.006.328.328,0,0,0,.257-.386,18.324,18.324,0,0,1-.1-5.59,19.849,19.849,0,0,1,3.462,1.857,10.114,10.114,0,0,0-.964,4.034,5.457,5.457,0,0,0,.736,2.79A6.853,6.853,0,0,0,5.9,82.918l-.047-.079a7.207,7.207,0,0,1-.533-1.162A.328.328,0,0,0,4.7,81.9a8.069,8.069,0,0,0,.461,1.047,7.337,7.337,0,0,0-2.189.585A18.211,18.211,0,0,1,.785,79.666Zm4.972,8.1a8.212,8.212,0,0,1-4.942-2.1,8.211,8.211,0,0,1,4.942-2.1,8.211,8.211,0,0,1,4.942,2.1A8.212,8.212,0,0,1,5.757,87.771ZM16.52,82.839l-.046.078a6.855,6.855,0,0,0-2.165.424,5.457,5.457,0,0,0,.736-2.79,10.33,10.33,0,0,0-.967-4.032,19.891,19.891,0,0,1,3.465-1.859C17.713,75.954,18.1,80.105,16.52,82.839Zm.69.106a10.083,10.083,0,0,0,1.019-3.414,19.033,19.033,0,0,1,3.357.135A18.213,18.213,0,0,1,19.4,83.531,7.336,7.336,0,0,0,17.21,82.946Z" transform="translate(0 -71.848)" fill="#3b5cff"/>
      <path id="Path_4" data-name="Path 4" d="M154.155,68.22a1.028,1.028,0,0,0,.515.139,1.042,1.042,0,0,0,.269-.036,1.034,1.034,0,1,0-.785-.1Zm.419-1.261a.381.381,0,0,1,.1-.013.379.379,0,1,1-.1.013Z" transform="translate(-146.925 -66.29)" fill="#3b5cff"/>
      <path id="Path_5" data-name="Path 5" d="M18.369,147.075a1.034,1.034,0,1,0-.731-.3A1.027,1.027,0,0,0,18.369,147.075Zm-.268-1.3a.378.378,0,1,1-.111.268A.377.377,0,0,1,18.1,145.774Z" transform="translate(-16.578 -141.568)" fill="#3b5cff"/>
      <path id="Path_6" data-name="Path 6" d="M311.789,68.324a1.04,1.04,0,0,0,.269.036,1.037,1.037,0,1,0-.269-.036Zm-.1-1.1a.379.379,0,0,1,.365-.281.379.379,0,0,1,.366.477.379.379,0,1,1-.731-.2Z" transform="translate(-297.432 -66.29)" fill="#3b5cff"/>
      <path id="Path_7" data-name="Path 7" d="M448.384,147.076a1.034,1.034,0,1,0-.731-.3A1.027,1.027,0,0,0,448.384,147.076Zm-.268-1.3a.378.378,0,1,1,0,.535A.379.379,0,0,1,448.117,145.775Z" transform="translate(-427.804 -141.569)" fill="#3b5cff"/>
    </g>
  </g>
</svg>
