<svg xmlns="http://www.w3.org/2000/svg" width="27.848" height="27.827" viewBox="0 0 27.848 27.827">
  <path id="fitness_1_" data-name="fitness (1)" d="M26.368,9.67l.885-.885a2.03,2.03,0,0,0,0-2.871l-1.84-1.84.935-.935A1.16,1.16,0,0,0,24.707,1.5l-.935.935L21.932.594a2.079,2.079,0,0,0-2.872,0l-.885.885-.3-.3a2.079,2.079,0,0,0-2.872,0l-.68.68a2.034,2.034,0,0,0,0,2.872L17.9,8.307,8.307,17.9,4.726,14.315a2.034,2.034,0,0,0-2.871,0l-.68.68a2.03,2.03,0,0,0,0,2.872l.305.305L.6,19.058a2.028,2.028,0,0,0,0,2.871l1.84,1.84L1.5,24.7a1.16,1.16,0,1,0,1.641,1.641l.935-.935,1.839,1.839a2.028,2.028,0,0,0,2.872,0l.885-.885.3.3a2.03,2.03,0,0,0,2.872,0l.68-.68a2.034,2.034,0,0,0,0-2.872L9.947,19.536l9.593-9.593,3.581,3.581a2.032,2.032,0,0,0,2.871,0l.68-.68a2.028,2.028,0,0,0,0-2.871Z" transform="translate(0 -0.018)"/>
</svg>
