<svg xmlns="http://www.w3.org/2000/svg" width="23" height="10.063" viewBox="0 0 23 10.063">
  <g id="filter-2-line" transform="translate(-2 -11)">
    <path id="Path_9830" data-name="Path 9830" d="M24.281,11H2.719a.719.719,0,0,0,0,1.438H24.281a.719.719,0,0,0,0-1.437Z"/>
    <path id="Path_9831" data-name="Path 9831" d="M22.094,17H7.719a.719.719,0,0,0,0,1.438H22.094a.719.719,0,0,0,0-1.437Z" transform="translate(-1.406 -1.688)"/>
    <path id="Path_9832" data-name="Path 9832" d="M19.906,23H12.719a.719.719,0,0,0,0,1.438h7.188a.719.719,0,0,0,0-1.437Z" transform="translate(-2.813 -3.375)"/>
  </g>
</svg>
