<svg xmlns="http://www.w3.org/2000/svg" width="14.244" height="19.729" viewBox="0 0 14.244 19.729">
  <g id="footsteps-silhouette-variant" transform="translate(-71.655 0)">
    <path id="Path_18" data-name="Path 18" d="M80.348,14.8c1.064.364,2,.6,3.354,1.011C83.184,22.367,76.986,19.764,80.348,14.8Zm5.533-6.021c-.07-1.968-.417-4.549-3.177-4.145C81.41,4.974,80.454,6.4,80,8.847a11.777,11.777,0,0,0,.188,4.376c.266.8.176.75.462.9,1.107.249,2.2.525,3.318.807C85.105,14.132,86.036,9.882,85.882,8.781ZM77.361,8.63a11.785,11.785,0,0,0,.188-4.376C77.1,1.8,76.143.38,74.849.042c-2.761-.4-3.108,2.177-3.177,4.145-.154,1.1.777,5.351,1.91,6.151,1.116-.281,2.211-.557,3.318-.807C77.186,9.38,77.1,9.429,77.361,8.63Zm-3.511,2.59c.519,6.554,6.716,3.951,3.354-1.011C76.14,10.573,75.2,10.8,73.851,11.22Z" fill="#945503"/>
  </g>
</svg>
