<svg xmlns="http://www.w3.org/2000/svg" width="17.25" height="19.019" viewBox="0 0 17.25 19.019">
  <g id="outline" transform="translate(-6.19 -3.548)">
    <path id="Path_57" data-name="Path 57" d="M22.327,15.187A7.658,7.658,0,0,0,15.785,3.548h-.493a7.542,7.542,0,0,0-7.533,7.533v1l-1.4,2.153a1.033,1.033,0,0,0,.43,1.5l1.006.468.4,2.268a2.4,2.4,0,0,0,2.37,1.99h1.844a.515.515,0,0,1,.5.408l.3,1.432a.334.334,0,0,0,.327.266h7.1a.334.334,0,0,0,.327-.4l-.455-2.188a3.463,3.463,0,0,1,.434-2.513Zm-1.957,1.93a4.129,4.129,0,0,0-.517,3l.371,1.786H13.8l-.242-1.166a1.185,1.185,0,0,0-1.156-.941H10.562A1.736,1.736,0,0,1,8.85,18.355l-.428-2.44a.334.334,0,0,0-.188-.245L7.07,15.128a.364.364,0,0,1-.152-.529l1.455-2.236a.338.338,0,0,0,.054-.182v-1.1a6.873,6.873,0,0,1,6.865-6.865h.493A6.99,6.99,0,0,1,21.756,14.84Zm-8.636-5.148a.334.334,0,0,1-.058.469,1.936,1.936,0,0,1-2.316,0,.334.334,0,0,1,.41-.527,1.3,1.3,0,0,0,1.495,0A.335.335,0,0,1,11.734,11.968Zm6.522-5.631a3.886,3.886,0,0,1,0,5.489.334.334,0,1,1-.473-.473A3.213,3.213,0,1,0,13.24,6.809a2.326,2.326,0,1,0,3.289,3.29,1.439,1.439,0,0,0-2.035-2.036.553.553,0,0,0,0,.782.566.566,0,0,0,.781,0,.334.334,0,1,1,.473.473,1.25,1.25,0,0,1-1.727,0,1.222,1.222,0,0,1,0-1.727A2.108,2.108,0,1,1,17,10.572a2.994,2.994,0,1,1-4.235-4.235,3.879,3.879,0,0,1,5.489,0Z"/>
  </g>
</svg>
