<svg xmlns="http://www.w3.org/2000/svg" width="25.04" height="27.97" viewBox="0 0 25.04 27.97">
  <g id="Page-1" transform="translate(-0.871 0.002)">
    <g id="_050---Human-Brain" data-name="050---Human-Brain" transform="translate(0.871 -0.002)">
      <path id="Shape" d="M33.049,29.5a2.609,2.609,0,0,0,.708,2.847,5.578,5.578,0,0,1,2.022,2.125,3.817,3.817,0,0,0,.176-1.226,4.345,4.345,0,0,1,.972-2.6,5.743,5.743,0,0,1-.582.034A5.358,5.358,0,0,1,33.049,29.5Z" transform="translate(-16.912 -15.265)"/>
      <path id="Shape-2" data-name="Shape" d="M10.938,11a.5.5,0,0,1,1,0,1.5,1.5,0,0,1-1.5,1.5H9.923a2.244,2.244,0,0,0,.527,1.172,1.674,1.674,0,0,0,.488.35v-.023a.5.5,0,0,1,1,0v.256a4.816,4.816,0,0,0,.91-.047l.67-.1a22.231,22.231,0,0,1,3.913-.355v-.258a.5.5,0,0,1,1,0v.38a4.253,4.253,0,0,1,2.125,1.169,13.562,13.562,0,0,0,1.87,1.6v-.155a1.5,1.5,0,0,1,1.5-1.5h1.5a.5.5,0,1,1,0,1h-1.5a.5.5,0,0,0-.5.5v.678a4.387,4.387,0,0,0,2.812.042,3.246,3.246,0,0,0,1.423-1.183,4.882,4.882,0,0,0,.491-1.036H27.42a.5.5,0,0,1,0-1h.957c.019-.167.038-.335.04-.508s-.005-.327-.009-.49H27.42a.5.5,0,0,1,0-1h.93a10.888,10.888,0,0,0-.342-1.889,4.9,4.9,0,0,0-1.088-1.949V8.5a1.5,1.5,0,0,1-1.5,1.5.5.5,0,0,1,0-1,.5.5,0,0,0,.5-.5V7.25c-.34-.261-.671-.493-1-.705V7.5a.5.5,0,1,1-1,0V6c0-.011.006-.021.006-.032a8.416,8.416,0,0,0-2.5-.845V6.5h.5a.5.5,0,0,1,0,1h-1a.5.5,0,0,1-.5-.5V5.015c-.3-.013-.6-.014-.9,0-.031,0-.063.006-.094.008V5.5a.5.5,0,1,1-1,0v-.4c-.333.036-.666.083-1,.132V5.5a.5.5,0,1,1-1,0V5.4c-.44.078-.875.161-1.3.247a11.549,11.549,0,0,0-1.2.308V7a.5.5,0,0,0,.5.5.5.5,0,0,1,0,1,1.5,1.5,0,0,1-1.5-1.5V6.347a4.156,4.156,0,0,0-1.224.849,6.212,6.212,0,0,0-.932,1.3h1.158a.5.5,0,1,1,0,1H10.325c-.114.338-.3,1.105-.366,1.389a4.85,4.85,0,0,0-.079.609h.56A.5.5,0,0,0,10.938,11Zm13.485,2a.5.5,0,0,0,.5-.5v-1a.5.5,0,0,1,1,0v1a1.5,1.5,0,0,1-1.5,1.5h-.5a.5.5,0,0,1,0-1ZM22.925,8.5h.5a.5.5,0,0,1,0,1h-.5a.5.5,0,0,0,0,1h.5a.5.5,0,0,1,0,1h-.5a1.5,1.5,0,0,1,0-3Zm-2.5,3v.5a.5.5,0,0,0,.5.5h.5a.5.5,0,0,1,0,1h-.5a1.5,1.5,0,0,1-1.5-1.5v-.5a.5.5,0,0,1,1,0Zm-4.495-3a1.5,1.5,0,0,1,1.5-1.5h1a1.5,1.5,0,0,1,1.5,1.5V9a.5.5,0,0,1-1,0V8.5a.5.5,0,0,0-.5-.5h-1a.5.5,0,0,0-.5.5V9a.5.5,0,1,1-1,0Zm.5,2.5h.5a.5.5,0,0,0,.5-.5v-1a.5.5,0,0,1,1,0v1a1.5,1.5,0,0,1-1.5,1.5h-.5a.5.5,0,0,1,0-1Zm-3.5,0a1.5,1.5,0,0,1,1.5-1.5h.5a.5.5,0,1,1,0,1h-.5a.5.5,0,0,0-.5.5v.5a.5.5,0,0,0,.5.5h.5a.5.5,0,1,1,0,1h-.5a1.5,1.5,0,0,1-1.5-1.5Z" transform="translate(-5.38 -3.003)"/>
      <path id="Shape-3" data-name="Shape" d="M1.579,18.087c.428.218,1.013.516,1.129,1.129a1.848,1.848,0,0,1-.134,1.117c-.085.178-.172.335-.25.47-.026.046-.055.1-.08.144.2.164.49.378.61.467a.5.5,0,0,1,.1.709,1.855,1.855,0,0,0-.191.309l.107.061a1.648,1.648,0,0,1,.921,1.022,2.216,2.216,0,0,1-.047,1.067c-.023.1-.046.207-.06.311a1.938,1.938,0,0,0,.12.881.886.886,0,0,0,1.031.67,41.551,41.551,0,0,0,4.291-1.3c.478-.163.915-.316,1.271-.441.393-.138.689-.241.838-.288,2.075-.649,2.5-1.4,2.484-1.916a.5.5,0,0,1,.487-.511.519.519,0,0,1,.511.488c.029,1.249-1.042,2.22-3.183,2.892-.143.045-.429.145-.808.278l-.36.126a7.973,7.973,0,0,1,1.764,3.19l11.326-.031-.036-.054a5.539,5.539,0,0,1-.385-.645,10.885,10.885,0,0,1-.621-1.57,17.517,17.517,0,0,1-.625-3.129,9.435,9.435,0,0,1,.729-4.9A12.139,12.139,0,0,1,23.985,16.3c.291-.392.591-.8.849-1.207a6.706,6.706,0,0,0,1.074-3.586,13.949,13.949,0,0,0-.485-3.953,7.2,7.2,0,0,0-2.641-3.781,11.18,11.18,0,0,0-7.868-2.758,32.474,32.474,0,0,0-4.685.672A8.2,8.2,0,0,0,5.753,3.816,8.485,8.485,0,0,0,3.962,6.743a12.233,12.233,0,0,0-.418,1.513L3.5,8.43a7.227,7.227,0,0,1-.485,1.31c-.1.213-.191.426-.273.642a.867.867,0,0,0-.08.35c.021.154.212.329.414.513a1.739,1.739,0,0,1,.732,1.249,1.441,1.441,0,0,1-.2.677,20.162,20.162,0,0,1-2.281,3.711c-.384.469-.462.649-.464.727a2.6,2.6,0,0,0,.294.238A2.885,2.885,0,0,0,1.579,18.087ZM4.473,8.669c.03-.13.272-1.166.425-1.582.031-.083.069-.161.1-.243a.494.494,0,0,1,.037-.088A7.416,7.416,0,0,1,6.479,4.5,5.776,5.776,0,0,1,8.722,3.138c.011,0,.022-.007.034-.012a11.67,11.67,0,0,1,1.669-.46,35.1,35.1,0,0,1,3.917-.6.452.452,0,0,1,.078-.015c.011,0,.021.005.032.006.17-.014.341-.033.511-.042C15.154,2,15.34,2,15.524,2a10.333,10.333,0,0,1,6.643,2.563A6.235,6.235,0,0,1,24.46,7.827a12.287,12.287,0,0,1,.424,2.639c0,.008,0,.014,0,.022a.054.054,0,0,1,0,.009c.018.328.025.66.02,1a5.956,5.956,0,0,1-.105.993.494.494,0,0,1-.046.205,5.774,5.774,0,0,1-.762,1.864A4.829,4.829,0,0,1,22.746,15.8l-.015.013a4.8,4.8,0,0,0-1.818,3.161c0,2.242-1.144,2.879-1.275,2.947a.5.5,0,0,1-.723-.449c0-.884,0-1.249-1.8-2.6-1.669-1.249-1.262-3.357-.949-4.345-.284-.258-.556-.524-.823-.784-1.384-1.353-2.992-1.122-6.2-.661l-.672.1a3.566,3.566,0,0,1-3.263-.839A4.378,4.378,0,0,1,4.473,8.669Z" transform="translate(-0.871 -0.998)"/>
    </g>
  </g>
</svg>
