<svg xmlns="http://www.w3.org/2000/svg" width="14.964" height="16.327" viewBox="0 0 14.964 16.327">
  <path id="Icon_ionic-ios-moon" data-name="Icon ionic-ios-moon" d="M19.288,16.835c-.123,0-.247.009-.37.009a7.5,7.5,0,0,1-5.39-2.27A7.744,7.744,0,0,1,11.3,9.1a7.842,7.842,0,0,1,.744-3.346,11.08,11.08,0,0,1,.578-.995.168.168,0,0,0-.166-.259,8.222,8.222,0,0,0,1.254,16.324,8.014,8.014,0,0,0,6.16-2.895,7.765,7.765,0,0,0,.7-.927.171.171,0,0,0-.174-.259A7.259,7.259,0,0,1,19.288,16.835Z" transform="translate(-5.625 -4.496)" fill="#8073f9"/>
</svg>
