<svg id="Page-1" xmlns="http://www.w3.org/2000/svg" width="25.159" height="27.968" viewBox="0 0 25.159 27.968">
  <g id="_022---Tape-Measure" data-name="022---Tape-Measure">
    <path id="Shape" d="M11.091,10.083c3.85,0,11.091-1.516,11.091-5.041C22.182,2.309,17.1,0,11.091,0S0,2.309,0,5.041,5.079,10.083,11.091,10.083Zm-.46-8.563a1.39,1.39,0,0,1,.46-.567A1.367,1.367,0,0,1,12.23.736a11.518,11.518,0,0,1,3.618,1.5c1.178.8,2.291,2.133,1.621,3.367-1.337,2.461-6.393,2.461-6.394,2.461-2.505,0-6.538-.876-6.538-3.277,0-1.781,2.593-3.155,6.093-3.269Z"/>
    <path id="Shape-2" data-name="Shape" d="M15.61,9.517l.322-4.487C13,5.171,11,6.287,11,7.283,11,8.237,12.832,9.316,15.61,9.517Z" transform="translate(-5.455 -2.494)"/>
    <path id="Shape-3" data-name="Shape" d="M24.953,4.051a13.636,13.636,0,0,0-1.994-.66.372.372,0,0,0-.454.336v.01l-.362,5a11.388,11.388,0,0,0,2.589-.294Zm-.866,2.667a.5.5,0,1,1-1.008,0v-.5a.5.5,0,1,1,1.008,0Z" transform="translate(-10.98 -1.677)"/>
    <path id="Shape-4" data-name="Shape" d="M31.092,7.994c.346-.729-.6-1.646-1.274-2.1q-.157-.106-.325-.206l-.18,3.585A3.042,3.042,0,0,0,31.092,7.994Z" transform="translate(-14.535 -2.821)"/>
    <path id="Shape-5" data-name="Shape" d="M16.5,45.285a1.177,1.177,0,0,0-.937-.2,2.187,2.187,0,0,1-2.477-1.79,1.181,1.181,0,0,0-1.42-1.023,2.168,2.168,0,0,1-1.5-.318q-.682.479-1.332.932A1.008,1.008,0,0,0,8.78,44.5l5.066,4.051a1.008,1.008,0,0,0,1.232.024q1.112-.83,2.188-1.7a2.744,2.744,0,0,1-.284-.764,1.175,1.175,0,0,0-.485-.824Zm-2.357,1.544a.5.5,0,0,1-.709.079L10.91,44.891a.5.5,0,0,1,.63-.787L14.06,46.12a.5.5,0,0,1,.079.709Z" transform="translate(-4.167 -20.803)"/>
    <path id="Shape-6" data-name="Shape" d="M29.152,3.743a6.479,6.479,0,0,0-1.524-1.021,4.615,4.615,0,0,1,2.417,3.724A3.836,3.836,0,0,1,29,8.894c-2.584,3.563-9.436,8.836-15.174,12.92a2.234,2.234,0,0,0,.454,0,2.172,2.172,0,0,1,2.473,1.781,1.2,1.2,0,0,0,1.425,1.032,2.182,2.182,0,0,1,2.473,1.786,2.936,2.936,0,0,0,.105.35c.745-.62,1.477-1.249,2.185-1.89l-2.3-1.963a.5.5,0,1,1,.655-.766l2.381,2.038c.71-.663,1.4-1.333,2.063-2.011l-2.076-1.781a.5.5,0,1,1,.655-.765l2.117,1.815c.527-.558,1.045-1.119,1.536-1.682.131-.151.264-.3.4-.459l-1.5-1.719a.5.5,0,1,1,.759-.663l1.406,1.606a19.048,19.048,0,0,0,1.623-2.23l-1-1.412a.5.5,0,0,1,.822-.585l.717,1.008a7.732,7.732,0,0,0,.713-2.294c.4-2.989-.294-7.012-2.756-9.262Z" transform="translate(-6.855 -1.35)"/>
    <path id="Shape-7" data-name="Shape" d="M4.537,24.516V22a.5.5,0,0,1,1.008,0v2.823a19.389,19.389,0,0,0,2.521.5V22.5a.5.5,0,1,1,1.008,0v2.568a103.814,103.814,0,0,0,9.776-7.974,20.709,20.709,0,0,1-7.759,1.374C6.066,18.466,1.85,17.008,0,14.874v5.609a3.311,3.311,0,0,0,1.512,2.486V20.483a.5.5,0,1,1,1.008,0v3.15A12.263,12.263,0,0,0,4.537,24.516Z" transform="translate(0 -7.376)"/>
  </g>
</svg>
