<svg xmlns="http://www.w3.org/2000/svg" width="30.001" height="30.001" viewBox="0 0 30.001 30.001">
  <g id="Layer_2" data-name="Layer 2" transform="translate(-0.989 -0.999)">
    <path id="Path_9808" data-name="Path 9808" d="M16,17a6,6,0,1,1,6-6,6,6,0,0,1-6,6ZM16,7a4,4,0,1,0,4,4A4,4,0,0,0,16,7Z" fill="#2e3136"/>
    <path id="Path_9809" data-name="Path 9809" d="M16,31A15,15,0,0,1,4.41,25.51l-.52-.64.52-.63a15,15,0,0,1,23.18,0l.52.63-.52.64A15,15,0,0,1,16,31ZM6.51,24.88a13,13,0,0,0,19,0,13,13,0,0,0-19,0Z" fill="#2e3136"/>
    <path id="Path_9810" data-name="Path 9810" d="M16,31a15,15,0,1,1,11.59-5.49A15,15,0,0,1,16,31ZM16,3A13,13,0,1,0,29,16,13,13,0,0,0,16,3Z" fill="#2e3136"/>
    <path id="Path_9811" data-name="Path 9811" d="M5.18,24.88S15.25,36.13,25.5,26l1.32-1.12S18.26,16,9.57,21.33Z" fill="#2e3136"/>
    <circle id="Ellipse_352" data-name="Ellipse 352" cx="5" cy="5" r="5" transform="translate(11 6)" fill="#2e3136"/>
  </g>
</svg>
