<svg xmlns="http://www.w3.org/2000/svg" width="16.811" height="16.811" viewBox="0 0 16.811 16.811">
  <g id="settings_4_" data-name="settings (4)" transform="translate(0)">
    <path id="Path_62" data-name="Path 62" d="M8.933,16.811H7.878A1.549,1.549,0,0,1,6.33,15.263v-.357a6.787,6.787,0,0,1-1.054-.437l-.253.253a1.548,1.548,0,0,1-2.189,0l-.746-.746a1.547,1.547,0,0,1,0-2.189l.253-.253A6.787,6.787,0,0,1,1.9,10.48H1.548A1.549,1.549,0,0,1,0,8.933V7.878A1.549,1.549,0,0,1,1.548,6.33H1.9a6.788,6.788,0,0,1,.437-1.054l-.253-.253a1.548,1.548,0,0,1,0-2.189l.746-.746a1.547,1.547,0,0,1,2.189,0l.253.253A6.793,6.793,0,0,1,6.33,1.9V1.548A1.549,1.549,0,0,1,7.878,0H8.933A1.549,1.549,0,0,1,10.48,1.548V1.9a6.786,6.786,0,0,1,1.054.437l.253-.253a1.548,1.548,0,0,1,2.189,0l.746.746a1.547,1.547,0,0,1,0,2.189l-.253.253a6.787,6.787,0,0,1,.437,1.054h.357a1.549,1.549,0,0,1,1.548,1.548V8.933a1.549,1.549,0,0,1-1.548,1.548h-.357a6.788,6.788,0,0,1-.437,1.054l.253.253a1.548,1.548,0,0,1,0,2.189l-.746.746a1.547,1.547,0,0,1-2.189,0l-.253-.253a6.793,6.793,0,0,1-1.054.437v.357A1.549,1.549,0,0,1,8.933,16.811ZM5.441,13.434a5.805,5.805,0,0,0,1.5.625.492.492,0,0,1,.369.477v.727a.563.563,0,0,0,.563.563H8.933a.563.563,0,0,0,.563-.563v-.727a.492.492,0,0,1,.369-.477,5.805,5.805,0,0,0,1.5-.625.492.492,0,0,1,.6.076l.515.515a.562.562,0,0,0,.8,0l.746-.746a.562.562,0,0,0,0-.8l-.515-.515a.493.493,0,0,1-.076-.6,5.8,5.8,0,0,0,.625-1.5.492.492,0,0,1,.477-.369h.727a.563.563,0,0,0,.563-.563V7.878a.563.563,0,0,0-.563-.563h-.727a.493.493,0,0,1-.477-.369,5.805,5.805,0,0,0-.625-1.5.493.493,0,0,1,.076-.6l.515-.515a.562.562,0,0,0,0-.8l-.746-.746a.562.562,0,0,0-.8,0l-.515.515a.492.492,0,0,1-.6.076,5.805,5.805,0,0,0-1.5-.625A.492.492,0,0,1,9.5,2.275V1.548A.563.563,0,0,0,8.933.985H7.878a.563.563,0,0,0-.563.563v.727a.492.492,0,0,1-.369.477,5.805,5.805,0,0,0-1.5.625.493.493,0,0,1-.6-.076l-.515-.515a.562.562,0,0,0-.8,0l-.746.746a.562.562,0,0,0,0,.8l.515.515a.493.493,0,0,1,.076.6,5.8,5.8,0,0,0-.625,1.5.492.492,0,0,1-.477.369H1.548a.563.563,0,0,0-.563.563V8.933a.563.563,0,0,0,.563.563h.727a.492.492,0,0,1,.477.369,5.805,5.805,0,0,0,.625,1.5.493.493,0,0,1-.076.6l-.515.515a.562.562,0,0,0,0,.8l.746.746a.562.562,0,0,0,.8,0l.515-.515A.5.5,0,0,1,5.441,13.434Z" fill="#0008ff"/>
    <path id="Path_63" data-name="Path 63" d="M148.258,151.915a3.658,3.658,0,1,1,3.658-3.658A3.662,3.662,0,0,1,148.258,151.915Zm0-6.33a2.673,2.673,0,1,0,2.673,2.673A2.676,2.676,0,0,0,148.258,145.585Z" transform="translate(-139.852 -139.852)" fill="#0008ff"/>
  </g>
</svg>
