<svg xmlns="http://www.w3.org/2000/svg" width="15.716" height="14.719" viewBox="0 0 15.716 14.719">
  <g id="moon" transform="translate(0 -12.158)">
    <g id="Group_156" data-name="Group 156" transform="translate(6.711 14.473)">
      <g id="Group_155" data-name="Group 155">
        <path id="Path_58" data-name="Path 58" d="M166.2,70.851a.364.364,0,0,0-.253-.079h-1.378l1.3-1.447.121-.135.062-.079a.435.435,0,0,0,.053-.1.328.328,0,0,0,.023-.118.246.246,0,0,0-.121-.236.732.732,0,0,0-.345-.066h-1.611a.354.354,0,0,0-.24.072.243.243,0,0,0-.085.194q0,.167.112.2a1.053,1.053,0,0,0,.328.039h1.05q-.066.092-.171.217l-.269.3-.364.394-.423.469q-.22.246-.289.328a.308.308,0,0,0,.03.423.446.446,0,0,0,.3.089h1.916a.374.374,0,0,0,.256-.075.249.249,0,0,0,.085-.194A.262.262,0,0,0,166.2,70.851Z" transform="translate(-163.629 -68.592)" fill="#0726c2"/>
      </g>
    </g>
    <g id="Group_158" data-name="Group 158" transform="translate(10.152 16.589)">
      <g id="Group_157" data-name="Group 157">
        <path id="Path_59" data-name="Path 59" d="M249.553,122.015a.289.289,0,0,0-.2-.062h-1.1l1.034-1.155.1-.108.062-.075a.345.345,0,0,0,.043-.079.262.262,0,0,0,.02-.1.2.2,0,0,0-.1-.19.584.584,0,0,0-.276-.052h-1.3a.285.285,0,0,0-.19.059.194.194,0,0,0-.069.154q0,.131.089.164a.837.837,0,0,0,.262.03h.84a1.941,1.941,0,0,1-.138.174l-.217.243-.282.328-.328.374q-.177.2-.233.269a.246.246,0,0,0,.023.328.354.354,0,0,0,.24.069h1.522a.3.3,0,0,0,.2-.059.2.2,0,0,0,.066-.154A.21.21,0,0,0,249.553,122.015Z" transform="translate(-247.516 -120.197)" fill="#0726c2"/>
      </g>
    </g>
    <g id="Group_160" data-name="Group 160" transform="translate(13.053 14.289)">
      <g id="Group_159" data-name="Group 159">
        <path id="Path_60" data-name="Path 60" d="M320.846,66.387a.364.364,0,0,0-.253-.079h-1.388l1.3-1.447.121-.135.079-.1a.434.434,0,0,0,.053-.1.328.328,0,0,0,.023-.118.246.246,0,0,0-.121-.236.732.732,0,0,0-.345-.066h-1.627a.354.354,0,0,0-.24.072.243.243,0,0,0-.085.194q0,.167.112.2a1.054,1.054,0,0,0,.328.039h1.05q-.066.092-.171.217l-.272.308-.354.394-.423.469q-.22.246-.289.328a.308.308,0,0,0,.03.423.446.446,0,0,0,.3.089h1.913a.374.374,0,0,0,.263-.066.25.25,0,0,0,.085-.194A.262.262,0,0,0,320.846,66.387Z" transform="translate(-318.269 -64.112)" fill="#0726c2"/>
      </g>
    </g>
    <g id="Group_162" data-name="Group 162" transform="translate(0 12.158)">
      <g id="Group_161" data-name="Group 161" transform="translate(0 0)">
        <path id="Path_61" data-name="Path 61" d="M14.5,22.089a.328.328,0,0,0-.361-.075,6.969,6.969,0,0,1-8.98-9.387.328.328,0,0,0-.423-.443,7.632,7.632,0,1,0,9.824,10.27A.328.328,0,0,0,14.5,22.089ZM7.638,26.223a6.979,6.979,0,0,1-3.4-13.075,7.523,7.523,0,0,0-.394,2.412A7.635,7.635,0,0,0,13.573,22.9,7.005,7.005,0,0,1,7.638,26.223Z" transform="translate(0 -12.158)" fill="#0726c2"/>
      </g>
    </g>
  </g>
</svg>
