<svg xmlns="http://www.w3.org/2000/svg" width="25.04" height="26.735" viewBox="0 0 25.04 26.735">
  <g id="SOLID" transform="translate(-46.49 -34.221)">
    <path id="Path_9815" data-name="Path 9815" d="M417.919,185.919v-.189a.96.96,0,0,0-.161-.532l-.8-1.2-.8,1.2a.961.961,0,0,0-.161.532v.189a.96.96,0,0,0,1.919,0Z" transform="translate(-347.349 -140.796)"/>
    <path id="Path_9816" data-name="Path 9816" d="M433.758,321.2l-.8-1.2-.8,1.2a.959.959,0,0,0-.161.532v.189a.96.96,0,1,0,1.919,0v-.189A.959.959,0,0,0,433.758,321.2Z" transform="translate(-362.39 -268.64)"/>
    <path id="Path_9817" data-name="Path 9817" d="M360.959,424l-.8,1.2a.96.96,0,0,0-.161.532v.189a.96.96,0,1,0,1.919,0v-.189a.961.961,0,0,0-.161-.532Z" transform="translate(-294.708 -366.402)"/>
    <rect id="Rectangle_3299" data-name="Rectangle 3299" width="3.838" height="2.399" transform="translate(52.338 58.557)"/>
    <path id="Path_9818" data-name="Path 9818" d="M49.825,42.416l.678-.226a.957.957,0,0,0-.3-1.865h-.655l-.1-.5a2.865,2.865,0,0,1,2.176-3.37l1.736-.4a2.386,2.386,0,0,0,1.807-1.833l-5.312,1.207a4.318,4.318,0,0,0-3.269,5.1l.1.456a6.742,6.742,0,0,0,4.185,4.894Z" transform="translate(0 0)"/>
    <path id="Path_9819" data-name="Path 9819" d="M114.046,68.846l-1.736.4a1.909,1.909,0,0,0-1.485,1.981,1.917,1.917,0,0,1,.657,3.649l1.256,4.188,3.738,2.285-.695-3.82a.964.964,0,0,1,.756-1.113l.916-.183a.48.48,0,0,0,.367-.6l-.8-2.8,1.4-.467-2.189-1.313L115.5,68.11A3.363,3.363,0,0,1,114.046,68.846Zm.419,2.805-.429-.858.96-.48.429.858Z" transform="translate(-60.474 -31.857)"/>
    <path id="Path_9820" data-name="Path 9820" d="M104.029,269.543l-5.555-3.395A9.052,9.052,0,0,0,96,272.393v6.581h1.919v-2.4h-.48v-4.8h.96v3.838h4.8v-3.838h.96v4.8h-.48v2.4h2.879v-4.927A5.31,5.31,0,0,0,104.029,269.543Z" transform="translate(-46.54 -218.017)"/>
    <path id="Path_9821" data-name="Path 9821" d="M318.807,166.716l-1.692-7.447-.547.183a.892.892,0,0,1-1.127-.563.48.48,0,0,0-.67-.277l-.265.132a.48.48,0,0,0-.255.53l1.082,5.052a1.437,1.437,0,0,1-.562,1.466l1.469,4.041.941-.294A2.411,2.411,0,0,0,318.807,166.716Z" transform="translate(-251.693 -116.882)"/>
    <path id="Path_9822" data-name="Path 9822" d="M226.5,285.511l.7.43a6.274,6.274,0,0,1,2.693,3.451l2.95-.922-1.457-4.007Z" transform="translate(-169.215 -235.234)"/>
    <path id="Path_9823" data-name="Path 9823" d="M297.333,92.21a.474.474,0,0,0,.392.024l2.03-.761a.48.48,0,0,0,.3-.566l-.146-.586-2.962.987.148.592A.474.474,0,0,0,297.333,92.21Z" transform="translate(-235.433 -52.736)"/>
    <path id="Path_9824" data-name="Path 9824" d="M234.075,67.027l1.183-.394.806.806a.479.479,0,0,0,.433.131l1.254-.251-.058-.27a1.439,1.439,0,0,1,.764-1.589l.265-.132a1.439,1.439,0,0,1,1.986.767l.975-.325,5.372-2.066a.479.479,0,0,0,.283-.6l-.846-2.538a.48.48,0,0,0-.607-.3l-4.426,1.475.164.658a1.439,1.439,0,0,1-.891,1.7l-2.03.761a1.44,1.44,0,0,1-1.9-1l-.13-.521-.936.312a.482.482,0,0,0-.3.3l-.3.91v.748l-1.332.444Z" transform="translate(-176.073 -24.457)"/>
  </g>
</svg>
